<svg width="13" height="13" viewBox="0 0 13 13" fill="none" xmlns="http://www.w3.org/2000/svg">
<path d="M12.7477 10.3371L11.3065 9.37619L10.0253 8.52223C9.77809 8.35773 9.44581 8.41166 9.26327 8.64596L8.47051 9.6651C8.30022 9.88625 7.99388 9.94981 7.74968 9.8146C7.21176 9.51538 6.57566 9.23365 5.17213 7.82832C3.7686 6.42299 3.48507 5.78869 3.18584 5.25077C3.05064 5.00656 3.11419 4.70023 3.33534 4.52996L4.35449 3.7372C4.58876 3.55469 4.64272 3.22241 4.47821 2.97513L3.65049 1.73342L2.66339 0.252756C2.49538 0.000731718 2.15906 -0.0749315 1.89932 0.0808382L0.760916 0.763787C0.453262 0.945049 0.22711 1.23775 0.129306 1.5812C-0.182004 2.71623 -0.244769 5.22004 3.76792 9.23273C7.78061 13.2454 10.2842 13.1825 11.4192 12.8711C11.7627 12.7733 12.0554 12.5472 12.2366 12.2395L12.9196 11.1011C13.0754 10.8414 12.9997 10.5051 12.7477 10.3371Z" fill="#C3C3C3"/>
</svg>
