<svg width="25" height="25" viewBox="0 0 25 25" fill="none" xmlns="http://www.w3.org/2000/svg">
<path d="M23.9583 13.5201H1.04167C0.466665 13.5201 0 13.0534 0 12.4784C0 11.9034 0.466665 11.4368 1.04167 11.4368H23.9583C24.5333 11.4368 25 11.9034 25 12.4784C25 13.0534 24.5333 13.5201 23.9583 13.5201Z" fill="white"/>
<path d="M23.9583 5.5339H1.04167C0.466665 5.5339 0 5.06723 0 4.49223C0 3.91723 0.466665 3.45056 1.04167 3.45056H23.9583C24.5333 3.45056 25 3.91723 25 4.49223C25 5.06723 24.5333 5.5339 23.9583 5.5339Z" fill="white"/>
<path d="M23.9583 21.5059H1.04167C0.466665 21.5059 0 21.0392 0 20.4642C0 19.8892 0.466665 19.4226 1.04167 19.4226H23.9583C24.5333 19.4226 25 19.8892 25 20.4642C25 21.0392 24.5333 21.5059 23.9583 21.5059Z" fill="white"/>
</svg>
