<svg width="14" height="18" viewBox="0 0 14 18" fill="none" xmlns="http://www.w3.org/2000/svg">
<path d="M11.5744 7.12853V4.57031C11.5744 2.05021 9.52419 0 7.00412 0C4.48405 0 2.43381 2.05021 2.43381 4.57031V7.12399C1.57666 8.00002 0.981854 9.11036 0.735866 10.3115C0.696913 10.5017 0.819538 10.6875 1.00977 10.7265C1.2001 10.7654 1.38576 10.6428 1.42472 10.4525C1.96416 7.81826 4.31066 5.90625 7.00412 5.90625C10.1445 5.90625 12.6994 8.46116 12.6994 11.6016C12.6994 14.742 10.1445 17.2969 7.00412 17.2969C4.31024 17.2969 1.96366 15.3845 1.42454 12.7497C1.38562 12.5595 1.20003 12.4368 1.00963 12.4758C0.819398 12.5147 0.696773 12.7005 0.73569 12.8907C1.02685 14.3136 1.80753 15.6092 2.93398 16.5388C4.07574 17.4811 5.52123 18 7.00412 18C10.5322 18 13.4026 15.1297 13.4026 11.6016C13.4026 9.86217 12.7046 8.28299 11.5744 7.12853ZM9.18381 5.58566C8.50318 5.3383 7.76916 5.20312 7.00412 5.20312C6.25666 5.20312 5.51877 5.33514 4.82443 5.58657V4.57031C4.82443 3.36843 5.80223 2.39062 7.00412 2.39062C8.20601 2.39062 9.18381 3.36843 9.18381 4.57031V5.58566ZM10.8713 6.50763C10.5637 6.27353 10.2345 6.06656 9.88693 5.89043V4.57031C9.88693 2.98072 8.59371 1.6875 7.00412 1.6875C5.41453 1.6875 4.12131 2.98072 4.12131 4.57031V5.8899C3.77646 6.06371 3.44669 6.26889 3.13693 6.50391V4.57031C3.13693 2.43795 4.87175 0.703125 7.00412 0.703125C9.13649 0.703125 10.8713 2.43795 10.8713 4.57031V6.50763Z" fill="#C3C3C3"/>
</svg>
